<svg width="24" height="26" fill="none" xmlns="http://www.w3.org/2000/svg"><path d="M13.173 5.711c0 .616-.48 1.092-1.04 1.092-.587 0-1.04-.504-1.04-1.092v-4.62c0-.615.48-1.091 1.04-1.091.586 0 1.04.504 1.04 1.092v4.62z" fill="#FF2E63"/><path opacity=".1" d="M18.24 10.219c-.507.308-1.147.112-1.44-.392a1.155 1.155 0 01.373-1.512l3.813-2.324c.507-.308 1.147-.112 1.44.392a1.155 1.155 0 01-.373 1.512l-3.814 2.324z" fill="#FF2E63"/><path opacity=".2" d="M18.533 13.83c-.587 0-1.04-.503-1.04-1.091 0-.616.48-1.092 1.04-1.092h4.4c.587 0 1.04.504 1.04 1.092 0 .616-.48 1.092-1.04 1.092h-4.4z" fill="#FF2E63"/><path opacity=".3" d="M17.093 17.106c-.507-.308-.667-.98-.374-1.512a1.02 1.02 0 011.44-.392l3.814 2.324c.506.308.666.98.373 1.512a1.02 1.02 0 01-1.44.392l-3.813-2.324z" fill="#FF2E63"/><path opacity=".4" d="M14.266 19.178a1.155 1.155 0 01.374-1.512c.506-.308 1.146-.112 1.44.392l2.213 4.004a1.155 1.155 0 01-.373 1.511c-.507.308-1.147.112-1.44-.392l-2.214-4.003z" fill="#FF2E63"/><path opacity=".5" d="M10.826 19.486c0-.616.48-1.092 1.04-1.092.587 0 1.04.504 1.04 1.092v4.62c0 .615-.48 1.091-1.04 1.091-.586 0-1.04-.504-1.04-1.091v-4.62z" fill="#FF2E63"/><path opacity=".58" d="M7.706 17.946a1.02 1.02 0 011.44-.392c.507.308.667.98.374 1.512l-2.214 4.003a1.02 1.02 0 01-1.44.392c-.506-.308-.666-.98-.373-1.511l2.213-4.004z" fill="#FF2E63"/><path opacity=".66" d="M5.733 14.978c.507-.308 1.147-.112 1.44.392a1.156 1.156 0 01-.373 1.512l-3.813 2.324c-.507.308-1.147.112-1.44-.392a1.156 1.156 0 01.373-1.512l3.813-2.324z" fill="#FF2E63"/><path opacity=".74" d="M5.44 11.367c.587 0 1.04.504 1.04 1.092 0 .616-.48 1.091-1.04 1.091h-4.4c-.587 0-1.04-.504-1.04-1.09 0-.616.48-1.092 1.04-1.092h4.4z" fill="#FF2E63"/><path opacity=".82" d="M6.906 8.091c.507.308.667.98.374 1.512a1.02 1.02 0 01-1.44.392L2.026 7.67c-.506-.308-.666-.98-.373-1.512a1.02 1.02 0 011.44-.392L6.906 8.09z" fill="#FF2E63"/><path opacity=".9" d="M9.733 6.02a1.155 1.155 0 01-.373 1.51c-.507.308-1.147.112-1.44-.392L5.707 3.136a1.155 1.155 0 01.373-1.512c.507-.308 1.147-.112 1.44.392l2.213 4.003z" fill="#FF2E63"/></svg>