<svg width="60" height="60" fill="none" xmlns="http://www.w3.org/2000/svg"><circle cx="30" cy="30" r="30" fill="#010A43"/><path d="M21.72 52.59c1.74 0 3.152-1.398 3.152-3.121 0-1.724-1.412-3.122-3.153-3.122s-3.153 1.398-3.153 3.122 1.412 3.121 3.153 3.121zm22.052 0c1.74 0 3.152-1.398 3.152-3.121 0-1.724-1.411-3.122-3.152-3.122-1.742 0-3.153 1.398-3.153 3.122s1.411 3.121 3.153 3.121zm7.52-20.511l.41-1.608c0-.062.015-.124.031-.171a1.573 1.573 0 011.513-1.124l.316.031a1.561 1.561 0 011.23 1.842l-.348 1.405-2.175 8.6a4.34 4.34 0 01-.19.608 4.9 4.9 0 01-.504 1.046 4.675 4.675 0 01-1.907 1.623c-.158.062-.3.124-.473.171a4.323 4.323 0 01-1.56.281H18.14c-.315 0-.63-.03-.914-.093a3.944 3.944 0 01-.836-.25 4.655 4.655 0 01-2.333-1.982 4.861 4.861 0 01-.22-.422 3.856 3.856 0 01-.316-.936c-.047-.172-.063-.359-.079-.53L10.92 23.12a1.778 1.778 0 00-.236-.561 1.81 1.81 0 00-.426-.422l-5.123-2.56a1.53 1.53 0 01-.757-1.326 1.573 1.573 0 012.191-1.436l6.306 3.121.268.141c.33.234.583.577.662.983l.032.203.267 1.842 1.86 12.845.41 2.871c.016.125.032.25.048.36.047.187.094.374.189.561v.016a3.169 3.169 0 002.096 1.795c.253.078.52.109.804.109h26.893a2.8 2.8 0 00.725-.094 3.12 3.12 0 002.065-1.576c.095-.156.173-.328.22-.515l1.877-7.398z" fill="#FAFAFA"/><path d="M16.984 24.947l15.59.078-.425 1.685-15.165-1.764zm.006 3.153l14.377 1.67-2.806 11.112h-8.844a3.166 3.166 0 01-2.57-2.107l-.015-.063a2.893 2.893 0 01-.142-.92v-9.693zm31.527 3.667v6.024c0 .266-.031.53-.11.78a3.112 3.112 0 01-1.781 2.076 2.563 2.563 0 01-.836.235H31.808l2.727-10.738 13.982 1.623zm-.006-6.961v3.808l-13.21-1.53.52-2.06h11.902c.284 0 .552-.078.788-.218zM49.305 20v3.121c0 .578-.315 1.093-.788 1.343-.236.14-.504.218-.788.218H17.78c-.111 0-.221-.015-.316-.031a1.25 1.25 0 01-.473-.187 1.515 1.515 0 01-.788-1.343V20c0-.578.315-1.077.788-1.342.237-.14.505-.219.788-.219H47.73c.284 0 .552.078.788.219.473.265.788.764.788 1.342zm-5.812-9.588c-1.577-2.341-4.887-3.122-7.41-1.561-1.103.624-2.364 2.029-3.31 3.433-.945-1.404-2.207-2.809-3.31-3.433-2.522-1.56-5.832-.937-7.409 1.56-1.576 2.498-.946 5.775 1.577 7.336.157.156.315.156.472.312h17.34c.158-.156.316-.156.473-.312 2.365-1.56 3.153-4.838 1.577-7.335zm-11.98 5.774v.156h-.158c-.158 0-.316.157-.473.157-.473.155-1.104.155-1.892 0-1.576-.157-3.153-.625-3.783-1.093-1.261-.78-1.576-2.185-.788-3.434.788-1.248 2.364-1.56 3.468-.78.63.468 1.891 1.56 2.837 2.81.473.624.63 1.248.788 1.716v.468zm8.985-.78c-.789.312-2.207.936-3.784 1.092-.788.156-1.418.156-1.891 0-.158 0-.316-.156-.473-.156h-.158v-.624c.158-.468.315-1.092.788-1.717.946-1.248 2.05-2.34 2.68-2.809 1.104-.78 2.68-.312 3.468.78.788 1.093.473 2.654-.63 3.434z" fill="#FF2E63"/></svg>