<svg width="84" height="30" fill="none" xmlns="http://www.w3.org/2000/svg"><path d="M37.889 28.378c2.03.105 3.405.157 4.123.157.17 0 .304-.045.4-.136a.507.507 0 00.156-.387v-.942h-2.556c-.778 0-1.345-.164-1.7-.492-.35-.335-.523-.869-.523-1.601v-.314c0-.733.174-1.263.522-1.59.356-.335.923-.503 1.7-.503h3.902v1.465h-3.457c-.444 0-.667.21-.667.628v.21c0 .418.223.627.667.627h2c.727 0 1.26.16 1.601.482.341.32.512.823.512 1.506v.524c0 .683-.17 1.186-.512 1.507-.34.32-.874.48-1.6.48-.378 0-.778-.006-1.2-.02l-1.023-.042a74.763 74.763 0 01-2.345-.146v-1.413zm12.236-5.808h2v5.337c0 .733-.177 1.266-.533 1.601-.348.328-.911.492-1.69.492h-2.555c-.778 0-1.345-.164-1.7-.492-.35-.335-.523-.868-.523-1.6V22.57h2v5.337c0 .419.223.628.667.628h1.667c.445 0 .667-.21.667-.628V22.57zm2.891 0h4.668c.778 0 1.341.168 1.69.502.355.328.533.858.533 1.591v.942c0 .579-.104 1.029-.311 1.35-.2.32-.523.533-.967.638l1.389 2.302h-2.167l-1.279-2.197h-1.556v2.197h-2V22.57zm4.89 2.093c0-.419-.222-.628-.667-.628h-2.222v2.198h2.222c.445 0 .667-.21.667-.628v-.942zm6.058 3.035l1.89-5.128h2.166l-2.945 7.325h-2.223l-2.945-7.325h2.167l1.89 5.128zm10.78 2.197h-6.168V22.57h6.168v1.465h-4.168v1.413h3.279v1.465h-3.279v1.517h4.168v1.465zm.5-7.325h2.112l1.834 3.558 1.834-3.558h2.112l-2.946 5.39v1.935h-2V27.96l-2.946-5.389zm-19.239-2.564c2.03.105 3.404.157 4.123.157a.56.56 0 00.4-.136.507.507 0 00.156-.387v-.942h-2.556c-.778 0-1.345-.164-1.7-.492-.35-.334-.523-.868-.523-1.6v-.315c0-.732.174-1.262.522-1.59.356-.335.923-.503 1.7-.503h3.902v1.466h-3.457c-.444 0-.667.209-.667.627v.21c0 .418.223.628.667.628h2c.727 0 1.26.16 1.601.481.341.32.511.823.511 1.507v.523c0 .684-.17 1.186-.51 1.507-.342.321-.875.481-1.601.481-.378 0-.778-.006-1.2-.02l-1.023-.042a74.744 74.744 0 01-2.345-.147v-1.413zm-4.768-5.808l1.334 4.71 1.167-4.71h2.167l-2.112 7.326h-2.111l-1.334-4.552-1.334 4.552h-2.112l-2.111-7.326h2.167l1.167 4.71 1.334-4.71h1.778zm-13.448 0h4.668c.778 0 1.341.168 1.69.503.355.328.533.858.533 1.59v.942c0 .58-.104 1.03-.312 1.35-.2.321-.522.534-.966.639l1.389 2.302h-2.167l-1.279-2.198H39.79v2.198h-2v-7.326zm4.89 2.093c0-.418-.222-.627-.667-.627H39.79v2.197h2.223c.445 0 .667-.21.667-.628v-.942zM12.226 29.898c1.227 0 2.223-.937 2.223-2.093s-.996-2.093-2.223-2.093c-1.228 0-2.223.937-2.223 2.093s.995 2.093 2.223 2.093zm15.548 0c1.228 0 2.223-.937 2.223-2.093s-.995-2.093-2.223-2.093c-1.228 0-2.223.937-2.223 2.093s.995 2.093 2.223 2.093zm5.302-13.753l.29-1.078c0-.042.01-.084.021-.115.134-.44.567-.753 1.067-.753l.223.02c.51.095.889.524.889 1.026 0 .073-.011.147-.022.21l-.245.941-1.534 5.766a2.915 2.915 0 01-.133.408 3.243 3.243 0 01-.356.701c-.333.471-.8.848-1.345 1.089-.11.042-.21.083-.333.115a3.188 3.188 0 01-1.1.188H9.703c-.222 0-.445-.02-.645-.063-.2-.031-.4-.094-.589-.167a3.245 3.245 0 01-1.645-1.329c-.055-.094-.111-.188-.155-.282a2.504 2.504 0 01-.223-.628c-.033-.116-.044-.241-.055-.356l-1.779-11.7a1.16 1.16 0 00-.166-.376 1.245 1.245 0 00-.3-.283L.533 7.763A1.018 1.018 0 010 6.873c0-.575.5-1.046 1.111-1.046.156 0 .3.031.434.084L5.99 8.004l.189.094c.233.157.41.387.466.659l.023.136.189 1.235 1.311 8.612.289 1.926.033.24c.034.126.067.252.134.377v.01a2.206 2.206 0 001.478 1.204c.178.052.367.073.567.073h18.96c.179 0 .345-.02.512-.063a2.188 2.188 0 001.456-1.056c.067-.105.122-.22.156-.346l1.322-4.96z" fill="#010A43"/><path d="M21.262 14.847l-1.922 7.2h9.858c.211-.021.4-.073.589-.157.611-.251 1.09-.764 1.256-1.392a1.66 1.66 0 00.078-.523v-4.04l-9.859-1.088zm9.854-3.579a1.124 1.124 0 01-.556.147h-8.39l-.368 1.381 9.314 1.026v-2.554zM9.773 12.382l.191-.479-.452-.471 10.068 1.113.3-1.13-10.431-.05h-.001c-.2 0-.39-.053-.556-.147v.145h-.004.004v8.612c0 .22.033.43.1.617l.011.042c.267.743.967 1.308 1.812 1.413h6.235l1.978-7.45-9.961-1.101.706-1.114zm21.903-4.336v2.093c0 .387-.222.732-.555.9a1.125 1.125 0 01-.556.146H9.448c-.078 0-.156-.01-.223-.02a.906.906 0 01-.333-.126 1.01 1.01 0 01-.556-.9V8.046c0-.387.223-.722.556-.9.167-.094.356-.147.556-.147h21.117c.2 0 .389.053.556.147.333.178.555.513.555.9z" fill="#FF2E63"/><path d="M31.12 13.822v2.114l-9.858-1.1-1.923 7.211h-2.29l1.99-7.45-10.147-1.12v-2.114l10.692 1.182.3-1.13h2.29l-.367 1.381 9.314 1.026zM27.577 1.617C26.466.047 24.132-.476 22.354.571c-.778.418-1.668 1.36-2.334 2.302C19.353 1.93 18.464.989 17.686.57c-1.779-1.047-4.113-.628-5.224 1.046-1.112 1.674-.667 3.872 1.111 4.918.111.105.223.105.334.21h12.226c.11-.105.222-.105.333-.21 1.667-1.046 2.223-3.244 1.111-4.918zM19.13 5.489v.105h-.11c-.112 0-.223.104-.334.104-.334.105-.778.105-1.334 0-1.111-.104-2.223-.418-2.667-.732-.89-.524-1.112-1.465-.556-2.303.556-.837 1.667-1.046 2.445-.523.445.314 1.334 1.047 2 1.884.334.418.445.837.556 1.151v.314zm6.336-.523c-.556.209-1.556.628-2.668.732-.555.105-1 .105-1.333 0-.112 0-.223-.104-.334-.104h-.111v-.419c.111-.314.222-.733.556-1.151.666-.837 1.444-1.57 1.89-1.884.777-.523 1.889-.21 2.444.523.556.733.334 1.78-.444 2.303z" fill="#010A43"/></svg>