<svg width="24" height="26" viewBox="0 0 24 26" fill="none" xmlns="http://www.w3.org/2000/svg">
<path d="M13.1728 5.71135C13.1728 6.32728 12.6928 6.80322 12.1328 6.80322C11.5461 6.80322 11.0928 6.29928 11.0928 5.71135V1.09188C11.0928 0.475946 11.5728 0 12.1328 0C12.7194 0 13.1728 0.503943 13.1728 1.09188V5.71135Z" fill="#FF2E63"/>
<path opacity="0.1" d="M18.2395 10.2189C17.7328 10.5269 17.0928 10.3309 16.7995 9.82695C16.5062 9.29502 16.6928 8.6231 17.1728 8.31514L20.9861 5.99142C21.4928 5.68346 22.1328 5.87944 22.4261 6.38338C22.7195 6.91531 22.5328 7.58723 22.0528 7.89519L18.2395 10.2189Z" fill="#FF2E63"/>
<path opacity="0.2" d="M18.5332 13.8306C17.9465 13.8306 17.4932 13.3266 17.4932 12.7387C17.4932 12.1228 17.9732 11.6469 18.5332 11.6469H22.9332C23.5198 11.6469 23.9732 12.1508 23.9732 12.7387C23.9732 13.3546 23.4932 13.8306 22.9332 13.8306H18.5332Z" fill="#FF2E63"/>
<path opacity="0.3" d="M17.0928 17.1062C16.5861 16.7982 16.4261 16.1263 16.7194 15.5944C17.0128 15.0624 17.6528 14.8945 18.1594 15.2024L21.9728 17.5261C22.4794 17.8341 22.6394 18.506 22.3461 19.0379C22.0528 19.5699 21.4128 19.7379 20.9061 19.4299L17.0928 17.1062Z" fill="#FF2E63"/>
<path opacity="0.4" d="M14.2663 19.1779C13.973 18.646 14.1596 17.9741 14.6396 17.6661C15.1463 17.3581 15.7863 17.5541 16.0796 18.0581L18.2929 22.0616C18.5863 22.5935 18.3996 23.2654 17.9196 23.5734C17.4129 23.8814 16.773 23.6854 16.4796 23.1814L14.2663 19.1779Z" fill="#FF2E63"/>
<path opacity="0.5" d="M10.8262 19.4859C10.8262 18.87 11.3062 18.394 11.8662 18.394C12.4528 18.394 12.9062 18.898 12.9062 19.4859V24.1055C12.9062 24.7214 12.4262 25.1974 11.8662 25.1974C11.2795 25.1974 10.8262 24.6934 10.8262 24.1055V19.4859Z" fill="#FF2E63"/>
<path opacity="0.58" d="M7.70621 17.9461C7.99954 17.4141 8.63954 17.2462 9.1462 17.5541C9.65287 17.8621 9.81287 18.534 9.51954 19.0659L7.30621 23.0694C7.01287 23.6014 6.37287 23.7694 5.86621 23.4614C5.35954 23.1534 5.19953 22.4815 5.49287 21.9496L7.70621 17.9461Z" fill="#FF2E63"/>
<path opacity="0.66" d="M5.73323 14.9784C6.2399 14.6704 6.87989 14.8664 7.17323 15.3703C7.46656 15.9023 7.2799 16.5742 6.7999 16.8822L2.98656 19.206C2.47989 19.5139 1.83989 19.3179 1.54656 18.814C1.25323 18.282 1.43989 17.6101 1.91989 17.3021L5.73323 14.9784Z" fill="#FF2E63"/>
<path opacity="0.74" d="M5.44 11.3668C6.02666 11.3668 6.48 11.8707 6.48 12.4586C6.48 13.0745 6 13.5504 5.44 13.5504H1.04C0.453332 13.5504 0 13.0465 0 12.4586C0 11.8427 0.479998 11.3668 1.04 11.3668H5.44Z" fill="#FF2E63"/>
<path opacity="0.82" d="M6.90635 8.09108C7.41302 8.39904 7.57302 9.07095 7.27968 9.60289C6.98635 10.1348 6.34635 10.3028 5.83969 9.99484L2.02636 7.67113C1.51969 7.36317 1.35969 6.69125 1.65302 6.15932C1.94636 5.62739 2.58635 5.45941 3.09302 5.76737L6.90635 8.09108Z" fill="#FF2E63"/>
<path opacity="0.9" d="M9.73338 6.01922C10.0267 6.55115 9.84004 7.22307 9.36004 7.53104C8.85337 7.839 8.21338 7.64302 7.92004 7.13908L5.70672 3.13557C5.41338 2.60363 5.60005 1.93171 6.08005 1.62375C6.58671 1.31579 7.22671 1.51176 7.52004 2.0157L9.73338 6.01922Z" fill="#FF2E63"/>
</svg>
