<svg width="60" height="60" viewBox="0 0 60 60" fill="none" xmlns="http://www.w3.org/2000/svg">
<circle cx="30" cy="30" r="30" fill="#010A43"/>
<path d="M21.7191 52.5901C23.4602 52.5901 24.8718 51.1925 24.8718 49.4687C24.8718 47.7447 23.4602 46.3473 21.7191 46.3473C19.9778 46.3473 18.5663 47.7447 18.5663 49.4687C18.5663 51.1925 19.9778 52.5901 21.7191 52.5901Z" fill="#FAFAFA"/>
<path d="M43.7716 52.5901C45.5127 52.5901 46.9243 51.1925 46.9243 49.4687C46.9243 47.7447 45.5127 46.3473 43.7716 46.3473C42.0304 46.3473 40.6189 47.7447 40.6189 49.4687C40.6189 51.1925 42.0304 52.5901 43.7716 52.5901Z" fill="#FAFAFA"/>
<path d="M51.2917 32.079L51.7015 30.4715C51.7015 30.409 51.7173 30.3466 51.733 30.2998C51.9222 29.6443 52.537 29.1761 53.2463 29.1761L53.5616 29.2073C54.2867 29.3477 54.8227 29.9876 54.8227 30.7368C54.8227 30.846 54.8069 30.9553 54.7912 31.0489L54.4444 32.4536L52.269 41.0531C52.2217 41.256 52.1586 41.4589 52.0798 41.6618C51.9537 42.0364 51.7803 42.3798 51.5754 42.7075C51.1025 43.4098 50.4404 43.9717 49.668 44.3307C49.5104 44.3931 49.3685 44.4555 49.1951 44.5023C48.7064 44.6896 48.1862 44.7833 47.6345 44.7833H18.1409C17.8257 44.7833 17.5104 44.7521 17.2267 44.6896C16.9428 44.6428 16.6591 44.5492 16.3912 44.4399C15.4138 44.0653 14.5941 43.363 14.0582 42.4578C13.9794 42.3173 13.9005 42.1769 13.8375 42.0364C13.6955 41.7399 13.5853 41.4277 13.5222 41.1C13.4749 40.9283 13.4592 40.741 13.4434 40.5693L10.9212 23.1205C10.8739 22.9176 10.7951 22.7303 10.6848 22.5586C10.5744 22.4025 10.4168 22.2465 10.2591 22.1372L5.13595 19.5776C4.67884 19.3123 4.37933 18.8128 4.37933 18.251C4.37933 17.3926 5.08871 16.6903 5.95569 16.6903C6.17639 16.6903 6.38134 16.7371 6.57048 16.8151L12.8759 19.9365L13.1439 20.077C13.4749 20.3112 13.7271 20.6545 13.8059 21.0603L13.8375 21.2632L14.1054 23.1048L15.9655 35.9496L16.3754 38.8213C16.3912 38.9462 16.4069 39.071 16.4227 39.1803C16.4699 39.3676 16.5173 39.5548 16.6119 39.7421V39.7577C16.9902 40.6317 17.7626 41.3029 18.7084 41.5526C18.9606 41.6306 19.2286 41.6618 19.5123 41.6618H46.4049C46.6572 41.6618 46.8936 41.6306 47.1301 41.5682C48.0286 41.3653 48.7852 40.7722 49.1951 39.9918C49.2897 39.8358 49.3685 39.6641 49.4158 39.4768L51.2917 32.079Z" fill="#FAFAFA"/>
<path d="M16.984 24.9465L32.5742 25.0245L32.1485 26.7101L16.984 24.9465Z" fill="#FF2E63"/>
<path d="M16.9902 28.0992L31.3665 29.7691L28.5606 40.8815H19.7173C18.5192 40.7254 17.5262 39.8826 17.1478 38.7745L17.1321 38.7121C17.0375 38.4311 16.9902 38.119 16.9902 37.7912V28.0992Z" fill="#FF2E63"/>
<path d="M48.5172 31.7669V37.7913C48.5172 38.0566 48.4857 38.3219 48.4069 38.5716C48.1704 39.508 47.4926 40.2728 46.6256 40.6474C46.3576 40.7722 46.0896 40.8503 45.7901 40.8815H31.8079L34.535 30.1437L48.5172 31.7669Z" fill="#FF2E63"/>
<path d="M48.5111 24.806V28.6142L35.3013 27.0847L35.8215 25.0245H47.7229C48.0067 25.0245 48.2747 24.9465 48.5111 24.806Z" fill="#FF2E63"/>
<path d="M49.3054 19.9999V23.1214C49.3054 23.6989 48.9901 24.2139 48.5172 24.4636C48.2808 24.6041 48.0128 24.6821 47.7291 24.6821H17.7783C17.668 24.6821 17.5576 24.6665 17.463 24.6509C17.2896 24.6197 17.1321 24.5573 16.9901 24.4636C16.5173 24.2139 16.202 23.6989 16.202 23.1214V19.9999C16.202 19.4225 16.5173 18.923 16.9901 18.6577C17.2266 18.5173 17.4946 18.4392 17.7783 18.4392H47.7291C48.0128 18.4392 48.2808 18.5173 48.5172 18.6577C48.9901 18.923 49.3054 19.4225 49.3054 19.9999Z" fill="#FF2E63"/>
<path d="M43.4926 10.4116C41.9162 8.07052 38.6059 7.29016 36.0837 8.85088C34.9803 9.47522 33.7192 10.8798 32.7734 12.2845C31.8276 10.8798 30.5665 9.47522 29.463 8.85088C26.9409 7.29016 23.6305 7.9145 22.0542 10.4116C20.4778 12.9088 21.1084 16.1863 23.6305 17.747C23.7882 17.903 23.9458 17.903 24.1034 18.0592H41.4433C41.601 17.903 41.7586 17.903 41.9162 17.747C44.2808 16.1863 45.069 12.9088 43.4926 10.4116ZM31.5123 16.1863C31.5123 16.3423 31.5123 16.3423 31.5123 16.3423C31.3547 16.3423 31.3547 16.3423 31.3547 16.3423C31.197 16.3423 31.0394 16.4985 30.8818 16.4985C30.4089 16.6545 29.7783 16.6545 28.9901 16.4985C27.4138 16.3423 25.8374 15.8741 25.2069 15.4059C23.9458 14.6256 23.6305 13.2209 24.4187 11.9723C25.2069 10.7238 26.7832 10.4116 27.8867 11.192C28.5172 11.6602 29.7783 12.7527 30.7241 14.0012C31.197 14.6256 31.3547 15.2499 31.5123 15.7181V16.1863ZM40.4975 15.4059C39.7093 15.7181 38.2906 16.3423 36.7143 16.4985C35.9261 16.6545 35.2956 16.6545 34.8226 16.4985C34.665 16.4985 34.5074 16.3423 34.3497 16.3423C34.1921 16.3423 34.1921 16.3423 34.1921 16.3423V15.7181C34.3497 15.2499 34.5074 14.6256 34.9803 14.0012C35.9261 12.7527 37.0295 11.6602 37.6601 11.192C38.7635 10.4116 40.3399 10.8798 41.1281 11.9723C41.9162 13.0648 41.601 14.6256 40.4975 15.4059Z" fill="#FF2E63"/>
</svg>
